  <svg id="_圖層_1" data-name="圖層_1" xmlns="http://www.w3.org/2000/svg" viewBox="0 0 1146.53 1219.89">
    <path class="cls-1"
      d="M898.17,576.74l-133.7-231.58c-10.54-18.26-36.42-33.2-57.5-33.2h-267.4c-21.08,0-46.96,14.94-57.5,33.2l-133.7,231.58c-10.54,18.26-10.54,48.14,0,66.4l133.7,231.58c10.54,18.26,36.42,33.2,57.5,33.2h267.4c21.08,0,46.96-14.94,57.5-33.2l133.7-231.58c10.54-18.26,10.54-48.14,0-66.4ZM844.46,621.34l-125.73,217.78c-2.83,4.9-14.08,11.39-19.73,11.39h-251.47c-5.66,0-16.91-6.49-19.73-11.39l-125.73-217.78c-2.83-4.9-2.83-17.89,0-22.79l125.73-217.78c2.83-4.9,14.08-11.39,19.73-11.39h251.47c5.66,0,16.91,6.49,19.73,11.39l125.73,217.78c2.83,4.9,2.83,17.89,0,22.79Z" />
    <rect class="cls-1" x="374.57" y="613.83" width="198.69" height="42.17" />
    <rect class="cls-1" x="413.53" y="689.46" width="159.73" height="42.17" />
    <rect class="cls-1" x="452.49" y="765.09" width="120.77" height="42.17" />
  </svg>